<svg id="9e9a167c-beca-4cda-ad52-70a3b8f5b438" data-name="Calque 1" xmlns="http://www.w3.org/2000/svg" viewBox="0 0 22.04 22.09"><defs><style>.c6bb6968-95a3-4643-8ef8-3c15d366eb82{fill:#f06;}</style></defs><title>close_menu</title><path class="c6bb6968-95a3-4643-8ef8-3c15d366eb82" d="M3.42,21.5l18-18A2,2,0,1,0,18.62.65l-18,18A2,2,0,0,0,3.42,21.5Z"/><path class="c6bb6968-95a3-4643-8ef8-3c15d366eb82" d="M21.08,18.31a1.57,1.57,0,0,0-.34-.18,1.74,1.74,0,0,0-.38-.11A1.45,1.45,0,0,0,20,18a1.85,1.85,0,0,0-.39,0,1.58,1.58,0,0,0-.37.11,2.36,2.36,0,0,0-.35.18,2.6,2.6,0,0,0-.3.25,2.45,2.45,0,0,0-.25.3,2.38,2.38,0,0,0-.19.35,2.23,2.23,0,0,0-.11.37A1.45,1.45,0,0,0,18,20a2,2,0,0,0,2,2,1.92,1.92,0,0,0,.4,0,2.22,2.22,0,0,0,.37-.11,2.2,2.2,0,0,0,.65-.44A2,2,0,0,0,22,20,2,2,0,0,0,21.08,18.31Z"/><path class="c6bb6968-95a3-4643-8ef8-3c15d366eb82" d="M16.07,13.24,3.56.73a2.16,2.16,0,0,0-3-.2,2.16,2.16,0,0,0,.2,3L13.24,16.07a2.16,2.16,0,0,0,3,.2A2.16,2.16,0,0,0,16.07,13.24Z"/></svg>