<svg id="7cfac93c-ba9c-4767-8c58-6b8e1ab94c57" data-name="Calque 1" xmlns="http://www.w3.org/2000/svg" viewBox="0 0 18.09 6.08"><defs><style>.dbfab8b8-b51e-4d97-ba4a-ef841ea7ebf1{fill:#fff;}</style></defs><title>labo_petit</title><path class="dbfab8b8-b51e-4d97-ba4a-ef841ea7ebf1" d="M11.27,2.85a1.49,1.49,0,0,0,.46-1.08A1.68,1.68,0,0,0,9.93.11H8.2l.36,1.15H9.93c.38,0,.6.2.6.54a.56.56,0,0,1-.6.54H9.71V3.47h.23a.69.69,0,1,1,0,1.37H9.71V6h.23a1.84,1.84,0,0,0,2-1.82A1.65,1.65,0,0,0,11.27,2.85Z"/><polygon class="dbfab8b8-b51e-4d97-ba4a-ef841ea7ebf1" points="2.67 4.86 1.32 4.86 1.32 0.11 0 0.11 0 5.98 2.67 5.98 2.67 4.86"/><path class="dbfab8b8-b51e-4d97-ba4a-ef841ea7ebf1" d="M3.4,6,5.24.11H6.83L8.67,6H7.26L6.9,4.58H5.11L4.75,6ZM5.52,3l-.14.54H6.63L6.5,3q-.13-.44-.24-.94T6,1.12H6l-.22,1Q5.65,2.56,5.52,3Z"/><path class="dbfab8b8-b51e-4d97-ba4a-ef841ea7ebf1" d="M15.42,6.08a2.72,2.72,0,0,1-1.08-.21,2.36,2.36,0,0,1-.84-.61,2.79,2.79,0,0,1-.54-1A4,4,0,0,1,12.76,3,3.93,3.93,0,0,1,13,1.73,2.65,2.65,0,0,1,13.5.79,2.34,2.34,0,0,1,14.34.2a3,3,0,0,1,2.17,0,2.3,2.3,0,0,1,.84.59,2.7,2.7,0,0,1,.54.95A3.91,3.91,0,0,1,18.09,3a4,4,0,0,1-.19,1.29,2.79,2.79,0,0,1-.54,1,2.36,2.36,0,0,1-.84.61A2.72,2.72,0,0,1,15.42,6.08Zm0-1.14a1.1,1.1,0,0,0,1-.52A2.48,2.48,0,0,0,16.73,3a2.35,2.35,0,0,0-.35-1.38,1.17,1.17,0,0,0-1.91,0A2.35,2.35,0,0,0,14.12,3a2.48,2.48,0,0,0,.35,1.41A1.09,1.09,0,0,0,15.42,4.94Z"/></svg>