<svg id="8740a438-a58c-4466-9b0e-3f26d821368a" data-name="Calque 1" xmlns="http://www.w3.org/2000/svg" viewBox="0 0 25.89 8.96"><title>Objet dynamique vectoriel5</title><path d="M4.47,4.18a2.19,2.19,0,0,0,1-1.81A2.39,2.39,0,0,0,2.87,0,2.38,2.38,0,0,0,.28,2.37a2.19,2.19,0,0,0,1,1.81A2.38,2.38,0,0,0,0,6.33,2.64,2.64,0,0,0,2.87,9,2.65,2.65,0,0,0,5.76,6.33,2.38,2.38,0,0,0,4.47,4.18ZM2.87,7.82a1.51,1.51,0,1,1,0-3,1.51,1.51,0,1,1,0,3Zm0-6.67A1.23,1.23,0,0,1,4.25,2.4,1.31,1.31,0,0,1,2.87,3.67,1.3,1.3,0,0,1,1.51,2.4,1.23,1.23,0,0,1,2.87,1.15Z"/><rect x="7.63" y="5.57" width="3.31" height="1.14"/><path d="M15.38,6c1.11-.95,2.36-2,2.36-3.51A2.43,2.43,0,0,0,15.12,0a2.54,2.54,0,0,0-2.57,2.07l0,.11,1.08.3,0-.12a1.41,1.41,0,0,1,1.45-1.2,1.29,1.29,0,0,1,1.4,1.36c0,1-.92,1.81-1.88,2.67s-2.1,1.87-2.1,3.12V8.8h5.35V7.69h-4C14,7.17,14.66,6.63,15.38,6Z"/><polygon points="24.78 5.57 24.78 0.16 23.56 0.16 19.79 5.62 21.07 5.62 23.57 1.95 23.57 5.57 23.56 5.57 23.56 6.68 23.57 6.68 23.57 8.8 24.78 8.8 24.78 6.68 25.89 6.68 25.89 5.57 24.78 5.57"/></svg>