<?xml version="1.0" encoding="utf-8"?>
<!-- Generator: Adobe Illustrator 20.0.0, SVG Export Plug-In . SVG Version: 6.00 Build 0)  -->
<svg version="1.1" id="Calque_1" xmlns="http://www.w3.org/2000/svg" xmlns:xlink="http://www.w3.org/1999/xlink" x="0px" y="0px"
	 viewBox="0 0 29.5 25.3" style="enable-background:new 0 0 29.5 25.3;" xml:space="preserve">
<style type="text/css">
	.st0{fill:#FF0066;}
</style>
<g>
	<path class="st0" d="M2,4h25.5c1.1,0,2-0.9,2-2s-0.9-2-2-2H2C0.9,0,0,0.9,0,2S0.9,4,2,4z"/>
	<path class="st0" d="M27.1,21.3c-0.1,0-0.3,0.1-0.4,0.1c-0.1,0.1-0.2,0.1-0.3,0.2c-0.1,0.1-0.2,0.2-0.3,0.3
		c-0.1,0.1-0.2,0.2-0.3,0.3c-0.1,0.1-0.1,0.2-0.2,0.3c-0.1,0.1-0.1,0.3-0.1,0.4c0,0.1,0,0.3,0,0.4s0,0.3,0,0.4
		c0,0.1,0.1,0.3,0.1,0.4s0.1,0.2,0.2,0.3c0.1,0.1,0.1,0.2,0.3,0.3c0.4,0.4,0.9,0.6,1.4,0.6c0.5,0,1-0.2,1.4-0.6
		c0.1-0.1,0.2-0.2,0.3-0.3c0.1-0.1,0.1-0.2,0.2-0.3c0-0.1,0.1-0.3,0.1-0.4c0-0.1,0-0.3,0-0.4c0-0.5-0.2-1-0.6-1.4
		C28.4,21.4,27.8,21.2,27.1,21.3z"/>
	<path class="st0" d="M27.5,10.6H2c-1.1,0-2,0.9-2,2s0.9,2,2,2h25.5c1.1,0,2-0.9,2-2S28.6,10.6,27.5,10.6z"/>
	<path class="st0" d="M17.5,21.3H2c-1.1,0-2,0.9-2,2s0.9,2,2,2h15.5c1.1,0,2-0.9,2-2S18.6,21.3,17.5,21.3z"/>
</g>
</svg>
