<?xml version="1.0" encoding="utf-8"?>
<!-- Generator: Adobe Illustrator 20.0.0, SVG Export Plug-In . SVG Version: 6.00 Build 0)  -->
<svg version="1.1" id="Calque_1" xmlns="http://www.w3.org/2000/svg" xmlns:xlink="http://www.w3.org/1999/xlink" x="0px" y="0px"
	 viewBox="0 0 25.9 9" style="enable-background:new 0 0 25.9 9;" xml:space="preserve">
<style type="text/css">
	.st0{fill:#5B14BC;}
</style>
<path class="st0" d="M4.5,4.2c0.4-0.3,1-0.9,1-1.8C5.5,1,4.4,0,2.9,0C1.3,0,0.3,1,0.3,2.4c0,0.9,0.6,1.5,1,1.8C0.8,4.4,0,5,0,6.3
	C0,7.9,1.2,9,2.9,9c1.7,0,2.9-1.1,2.9-2.6C5.8,5,4.9,4.4,4.5,4.2z M2.9,7.8C1.8,7.8,1.2,7,1.2,6.3c0-0.9,0.7-1.5,1.6-1.5
	s1.6,0.6,1.6,1.5C4.5,7,4,7.8,2.9,7.8z M2.9,1.2c0.8,0,1.4,0.5,1.4,1.3c0,0.7-0.6,1.3-1.4,1.3c-0.8,0-1.4-0.6-1.4-1.3
	C1.5,1.6,2,1.2,2.9,1.2z"/>
<rect x="7.6" y="5.6" class="st0" width="3.3" height="1.1"/>
<path class="st0" d="M15.4,6c1.1-0.9,2.4-2,2.4-3.5C17.7,1,16.7,0,15.1,0c-1.7,0-2.4,1.3-2.6,2.1l0,0.1l1.1,0.3l0-0.1
	c0.2-0.8,0.7-1.2,1.5-1.2c0.8,0,1.4,0.5,1.4,1.4c0,1-0.9,1.8-1.9,2.7c-1,0.9-2.1,1.9-2.1,3.1v0.5h5.3V7.7h-4C14,7.2,14.7,6.6,15.4,6
	z"/>
<polygon class="st0" points="24.8,5.6 24.8,0.2 23.6,0.2 19.8,5.6 21.1,5.6 23.6,1.9 23.6,5.6 23.6,5.6 23.6,6.7 23.6,6.7 23.6,8.8 
	24.8,8.8 24.8,6.7 25.9,6.7 25.9,5.6 "/>
</svg>
